<svg width="1077" height="267" fill="none" xmlns="http://www.w3.org/2000/svg"><g filter="url(#a)" style="filter:url(#b)"><path d="M124.934 1.009A3 3 0 0 1 127.178 0h803.096c2.854 0 4.096 3.61 1.844 5.366l-172.419 134.44a3.001 3.001 0 0 0-.357 4.404l105.294 113.752c1.778 1.921.416 5.038-2.201 5.038H127.039a3.002 3.002 0 0 1-2.081-.839L2.074 143.811a2.999 2.999 0 0 1-.163-4.151L124.934 1.009z" fill="url(#c)"/></g><g filter="url(#d)" style="filter:url(#e)"><path d="M772.129 1.613A3 3 0 0 1 774.789 0h297.441c2.21 0 3.66 2.306 2.71 4.297l-65.27 136.111c-.42.881-.39 1.913.09 2.765l64.73 115.359c1.13 2-.32 4.468-2.61 4.468H774.654a3 3 0 0 1-2.561-1.437l-72.21-118.302a3.003 3.003 0 0 1-.099-2.951L772.129 1.613z" fill="url(#f)"/></g><path d="M782.013 17.81a3 3 0 0 1 2.754-1.81h253.673c2.15 0 3.61 2.209 2.75 4.19l-27.2 63a3.01 3.01 0 0 1-2.76 1.81H757.563c-2.157 0-3.609-2.209-2.754-4.19l27.204-63z" fill="url(#g)" style="filter:url(#h)"/><g filter="url(#i)" style="filter:url(#j)"><path d="m972 132.5-169 89.277L824 44l148 88.5z" fill="url(#k)"/></g><g filter="url(#l)" style="filter:url(#m)"><path d="m100.108 89.91 3.835-22.82h107.514l-3.835 22.82h-40.078L149.646 198h-27.358l17.898-108.09h-40.078zM203.83 198l21.733-130.91h51.648c9.886 0 18.026 1.748 24.418 5.242 6.434 3.495 10.951 8.46 13.551 14.894 2.642 6.392 3.26 13.935 1.854 22.628-1.449 8.693-4.581 16.15-9.397 22.372-4.773 6.221-10.994 11.015-18.665 14.382-7.627 3.324-16.47 4.986-26.527 4.986h-34.581l3.836-22.245h30.042c5.284 0 9.801-.724 13.551-2.173s6.712-3.622 8.885-6.52c2.216-2.897 3.665-6.498 4.347-10.802.724-4.39.469-8.054-.767-10.995-1.236-2.983-3.473-5.241-6.712-6.775-3.238-1.577-7.5-2.365-12.784-2.365h-18.665L231.508 198H203.83zm80.54-59.574L307.062 198h-30.554l-21.989-59.574h29.851zM341.974 198h-29.659L379.24 67.09h35.667L438.302 198h-29.659L392.727 97.006h-1.023L341.974 198zm6.776-51.456h70.056l-3.707 21.605h-70.057l3.708-21.605zm225.059-33.622h-27.614c.086-3.665-.383-6.904-1.406-9.716-1.023-2.855-2.557-5.284-4.602-7.287-2.003-2.003-4.453-3.516-7.351-4.538-2.898-1.066-6.158-1.598-9.78-1.598-6.988 0-13.402 1.747-19.24 5.241-5.838 3.495-10.76 8.565-14.765 15.213-4.006 6.605-6.776 14.595-8.31 23.97-1.492 9.034-1.406 16.598.256 22.692 1.661 6.094 4.602 10.696 8.821 13.807 4.261 3.068 9.566 4.602 15.916 4.602 3.92 0 7.649-.49 11.186-1.47 3.537-1.023 6.754-2.472 9.652-4.347a32.299 32.299 0 0 0 7.67-6.967c2.216-2.727 3.942-5.817 5.178-9.268h27.805c-1.747 6.008-4.474 11.804-8.182 17.386-3.664 5.582-8.203 10.568-13.615 14.957-5.412 4.347-11.569 7.799-18.473 10.356-6.903 2.556-14.467 3.835-22.691 3.835-11.89 0-22.096-2.728-30.618-8.182-8.48-5.455-14.595-13.317-18.345-23.587-3.75-10.27-4.454-22.649-2.11-37.137 2.344-14.02 6.925-25.91 13.743-35.668 6.861-9.801 15.192-17.237 24.993-22.308 9.844-5.071 20.369-7.607 31.577-7.607 7.798 0 14.85 1.066 21.157 3.196s11.676 5.242 16.108 9.332c4.475 4.049 7.841 9.013 10.1 14.894 2.258 5.88 3.238 12.614 2.94 20.199zM576.058 198l21.733-130.91h27.677l-17.897 108.09h56.122L659.857 198h-83.799zm98.529 0L696.32 67.09h88.21l-3.835 22.82h-60.533l-5.114 31.194h55.995l-3.836 22.819h-55.994l-5.114 31.257h60.789L763.053 198h-88.466z" fill="url(#n)"/></g><defs><filter id="a" x="1.155" y="0" width="932.124" height="267" filterUnits="userSpaceOnUse" color-interpolation-filters="sRGB"><feFlood flood-opacity="0" result="BackgroundImageFix"/><feColorMatrix in="SourceAlpha" values="0 0 0 0 0 0 0 0 0 0 0 0 0 0 0 0 0 0 127 0" result="hardAlpha"/><feOffset dy="4"/><feComposite in2="hardAlpha" operator="out"/><feColorMatrix values="0 0 0 0 0.2375 0 0 0 0 0.2375 0 0 0 0 0.2375 0 0 0 1 0"/><feBlend in2="BackgroundImageFix" result="effect1_dropShadow_19_2"/><feBlend in="SourceGraphic" in2="effect1_dropShadow_19_2" result="shape"/><feColorMatrix in="SourceAlpha" values="0 0 0 0 0 0 0 0 0 0 0 0 0 0 0 0 0 0 127 0" result="hardAlpha"/><feOffset dy="2"/><feGaussianBlur stdDeviation="16.5"/><feComposite in2="hardAlpha" operator="arithmetic" k2="-1" k3="1"/><feColorMatrix values="0 0 0 0 0 0 0 0 0 0 0 0 0 0 0 0 0 0 0.25 0"/><feBlend in2="shape" result="effect2_innerShadow_19_2"/><feColorMatrix in="SourceAlpha" values="0 0 0 0 0 0 0 0 0 0 0 0 0 0 0 0 0 0 127 0" result="hardAlpha"/><feOffset dy="2"/><feComposite in2="hardAlpha" operator="arithmetic" k2="-1" k3="1"/><feColorMatrix values="0 0 0 0 1 0 0 0 0 1 0 0 0 0 1 0 0 0 0.25 0"/><feBlend in2="effect2_innerShadow_19_2" result="effect3_innerShadow_19_2"/></filter><filter style="color-interpolation-filters:sRGB" id="b" x="0" y="0" width="1" height="1"><feColorMatrix values="0.21 0.72 0.072 0 0 0.21 0.72 0.072 0 0 0.21 0.72 0.072 0 0 0 0 0 1 0"/></filter><filter id="i" x="799" y="44" width="177" height="185.777" filterUnits="userSpaceOnUse" color-interpolation-filters="sRGB"><feFlood flood-opacity="0" result="BackgroundImageFix"/><feColorMatrix in="SourceAlpha" values="0 0 0 0 0 0 0 0 0 0 0 0 0 0 0 0 0 0 127 0" result="hardAlpha"/><feOffset dy="4"/><feGaussianBlur stdDeviation="2"/><feComposite in2="hardAlpha" operator="out"/><feColorMatrix values="0 0 0 0 0 0 0 0 0 0 0 0 0 0 0 0 0 0 0.25 0"/><feBlend in2="BackgroundImageFix" result="effect1_dropShadow_19_2"/><feBlend in="SourceGraphic" in2="effect1_dropShadow_19_2" result="shape"/><feColorMatrix in="SourceAlpha" values="0 0 0 0 0 0 0 0 0 0 0 0 0 0 0 0 0 0 127 0" result="hardAlpha"/><feOffset dy="4"/><feGaussianBlur stdDeviation="2"/><feComposite in2="hardAlpha" operator="arithmetic" k2="-1" k3="1"/><feColorMatrix values="0 0 0 0 0 0 0 0 0 0 0 0 0 0 0 0 0 0 0.25 0"/><feBlend in2="shape" result="effect2_innerShadow_19_2"/></filter><filter id="l" x="100.108" y="65.301" width="684.422" height="138.489" filterUnits="userSpaceOnUse" color-interpolation-filters="sRGB"><feFlood flood-opacity="0" result="BackgroundImageFix"/><feColorMatrix in="SourceAlpha" values="0 0 0 0 0 0 0 0 0 0 0 0 0 0 0 0 0 0 127 0" result="hardAlpha"/><feOffset dy="4"/><feComposite in2="hardAlpha" operator="out"/><feColorMatrix values="0 0 0 0 0 0 0 0 0 0 0 0 0 0 0 0 0 0 0.25 0"/><feBlend in2="BackgroundImageFix" result="effect1_dropShadow_19_2"/><feBlend in="SourceGraphic" in2="effect1_dropShadow_19_2" result="shape"/><feColorMatrix in="SourceAlpha" values="0 0 0 0 0 0 0 0 0 0 0 0 0 0 0 0 0 0 127 0" result="hardAlpha"/><feOffset dy="2"/><feComposite in2="hardAlpha" operator="arithmetic" k2="-1" k3="1"/><feColorMatrix values="0 0 0 0 0.545833 0 0 0 0 0.545833 0 0 0 0 0.545833 0 0 0 0.25 0"/><feBlend in2="shape" result="effect2_innerShadow_19_2"/></filter><filter style="color-interpolation-filters:sRGB" id="e" x="0" y="0" width="1" height="1"><feColorMatrix values="0.21 0.72 0.072 0 0 0.21 0.72 0.072 0 0 0.21 0.72 0.072 0 0 0 0 0 1 0"/></filter><filter style="color-interpolation-filters:sRGB" id="h" x="0" y="0" width="1" height="1"><feColorMatrix values="0.21 0.72 0.072 0 0 0.21 0.72 0.072 0 0 0.21 0.72 0.072 0 0 0 0 0 1 0"/></filter><filter style="color-interpolation-filters:sRGB" id="j" x="0" y="0" width="1" height="1"><feColorMatrix values="0.21 0.72 0.072 0 0 0.21 0.72 0.072 0 0 0.21 0.72 0.072 0 0 0 0 0 1 0"/></filter><filter id="d" x="699.444" y="0" width="375.794" height="267" filterUnits="userSpaceOnUse" color-interpolation-filters="sRGB"><feFlood flood-opacity="0" result="BackgroundImageFix"/><feColorMatrix in="SourceAlpha" values="0 0 0 0 0 0 0 0 0 0 0 0 0 0 0 0 0 0 127 0" result="hardAlpha"/><feOffset dy="4"/><feComposite in2="hardAlpha" operator="out"/><feColorMatrix values="0 0 0 0 0 0 0 0 0 0.558333 0 0 0 0 0.122833 0 0 0 1 0"/><feBlend in2="BackgroundImageFix" result="effect1_dropShadow_19_2"/><feBlend in="SourceGraphic" in2="effect1_dropShadow_19_2" result="shape"/><feColorMatrix in="SourceAlpha" values="0 0 0 0 0 0 0 0 0 0 0 0 0 0 0 0 0 0 127 0" result="hardAlpha"/><feOffset dy="2"/><feGaussianBlur stdDeviation="16.5"/><feComposite in2="hardAlpha" operator="arithmetic" k2="-1" k3="1"/><feColorMatrix values="0 0 0 0 0 0 0 0 0 0 0 0 0 0 0 0 0 0 0.25 0"/><feBlend in2="shape" result="effect2_innerShadow_19_2"/><feColorMatrix in="SourceAlpha" values="0 0 0 0 0 0 0 0 0 0 0 0 0 0 0 0 0 0 127 0" result="hardAlpha"/><feOffset dy="2"/><feComposite in2="hardAlpha" operator="arithmetic" k2="-1" k3="1"/><feColorMatrix values="0 0 0 0 1 0 0 0 0 1 0 0 0 0 1 0 0 0 0.25 0"/><feBlend in2="effect2_innerShadow_19_2" result="effect3_innerShadow_19_2"/></filter><filter style="color-interpolation-filters:sRGB" id="m" x="0" y="0" width="1" height="1"><feColorMatrix values="0.21 0.72 0.072 0 0 0.21 0.72 0.072 0 0 0.21 0.72 0.072 0 0 0 0 0 1 0"/></filter><linearGradient id="n" x1="433" y1="24" x2="433" y2="242" gradientUnits="userSpaceOnUse"><stop stop-color="#fff"/><stop offset="1" stop-color="#BDBDBD"/></linearGradient><linearGradient id="f" x1="349.61" y1="-27.073" x2="349.768" y2="263.001" gradientUnits="userSpaceOnUse"><stop stop-color="#00D62F"/><stop offset="1" stop-color="#005A14"/></linearGradient><linearGradient id="c" x1="-1006.51" y1="-27.073" x2="-1006.45" y2="263.001" gradientUnits="userSpaceOnUse"><stop stop-color="#5E5E5E"/><stop offset="1" stop-color="#121212"/></linearGradient><linearGradient id="k" x1="859.333" y1="64.984" x2="859.333" y2="193.422" gradientUnits="userSpaceOnUse"><stop stop-color="#fff"/><stop offset="1" stop-color="#E6E6E6"/></linearGradient><radialGradient id="g" cx="0" cy="0" r="1" gradientUnits="userSpaceOnUse" gradientTransform="matrix(0 85.8979 -975.268 0 651.022 16)"><stop offset=".167" stop-color="#fff" stop-opacity=".31"/><stop offset=".719" stop-color="#fff" stop-opacity="0"/></radialGradient></defs></svg>